
		<svg xmlns="http://www.w3.org/2000/svg" xmlns:xlink="http://www.w3.org/1999/xlink" version="1.1" width="3231.6602316602316" height="2455.5984555984555">
			
			<g transform="scale(11.583011583011583) translate(10, 10)">
				<defs id="SvgjsDefs1344"/><g id="main_text" rel="mainfill" name="main_text" feature="main_text" xmlns:name="mainText_mainfill" groupName="main_text" fill="#952422" transform="translate(0, 140.94695547501408) scale(2.1094566728170965)"><path d="M0.21484 9.980375 l3.125 0 q0.517578125 1.884765625 2.12890625 7.548828125 l1.2305 0 q0.048828125 0 0.400390625 -1.357421875 q0.78125 -2.666015625 1.748046875 -6.19140625 l2.8906 0 l0 9.082 l0.16602 0 l0 1.6602 l-0.87891 0 l0 0.30273 l0.87891 0 l0 2.959 l-2.4609 0 l0 -1.084 l0.30273 0 l0 -3.3594 l-0.51758 0 l0 -1.6797 l-0.3125 0 l-0.019531 0.087891 l-0.26367 0 l0 2.3926 l-0.84961 0 l0 1.1133 l-0.73242 0 l0 1.8945 l-1.7285 0 l0 -1.2109 l-1.0645 0 l0 -1.6602 l-0.63477 0 l0 -1.7188 l-0.36133 0 q-0.01953125 -0.146484375 -0.234375 -0.8984375 l2.4805 0 l-0.068359 -0.33203 l-2.4805 0 l0.068359 0.33203 l-0.33203 0 l0 2.168 l0.16602 0 l0 2.3926 l-0.61523 0 l0 0.42969 l0.61523 0 l0 0.63477 l-2.2266 0 l0 -2.8809 l-0.41992 0 l0 -10.625 z M2.6758 16.533175 l0 0.16602 q0 0.21484375 0.01953125 0.830078125 l0.23438 0 q-0.234375 -0.947265625 -0.234375 -0.99609375 l-0.019531 0 z M9.2285 16.552775 l-0.21484 0.97656 l0.21484 0 q0.01953125 -0.60546875 0.01953125 -0.87890625 l0 -0.097656 l-0.019531 0 z M1.8945 17.529275 l0 0.33203 l0.78125 0 l0 -0.33203 l-0.78125 0 z M6.7383 17.529275 l-0.068359 0.33203 l2.2266 0 q0.09765625 -0.263671875 0.09765625 -0.33203125 l-2.2559 0 z M9.248 17.529275 l0 0.33203 l1.709 0 l0 -0.33203 l-1.709 0 z M5.5566 17.861375 q0.166015625 0.751953125 0.21484375 0.751953125 l0.2832 0 l0 1.25 l0.44922 0 l0 -1.9336 l0.11719 0 l0 -0.068359 l-1.0645 0 z M11.904 20.722675 l1.416 0 l0 0.30273 l-1.416 0 l0 -0.30273 z M12.041 21.142575 l0.11719 0 l0 0.21484 l0.19531 0 l0 -0.16602 q0 -0.048828125 0.048828125 -0.048828125 l0.039063 0 q0.048828125 0.009765625 0.048828125 0.048828125 l0 0.44922 q0 0.048828125 -0.048828125 0.048828125 l-0.087891 0 l0 -0.21484 l-0.19531 0 l0 0.21484 l-0.11719 0 l0 -0.54688 z M12.041 21.855475 l0.33203 0 q0.048828125 0.009765625 0.048828125 0.048828125 l0 0.068359 l-0.26367 0 l0 0.097656 l0.21484 0 l0 0.11719 l-0.21484 0 l0 0.21484 l-0.11719 0 l0 -0.54688 z M12.07 22.568375 l0.33203 0 q0.0390625 0 0.0390625 0.0390625 l0 0.048828 l-0.25391 0.33203 l0.25391 0 l0 0.11719 l-0.40039 0 q-0.048828125 0 -0.048828125 -0.068359375 q0.078125 -0.1171875 0.263671875 -0.3515625 l-0.23438 0 l0 -0.078125 q0.009765625 -0.0390625 0.048828125 -0.0390625 z M12.041 23.271485 l0.11719 0 l0 0.3125 l0.029297 0.11719 l0.11719 0 q0.048828125 0 0.048828125 -0.048828125 l0 -0.33203 q0 -0.048828125 0.048828125 -0.048828125 l0.039063 0 q0.048828125 0.009765625 0.048828125 0.048828125 l0 0.2832 q0 0.21484375 -0.21484375 0.21484375 l-0.039063 0 q-0.13671875 0 -0.1953125 -0.1171875 l0 -0.42969 z M0 23.603515 l2.5098 0 l0 0.21484 l-2.5098 0 l0 -0.21484 z M14.0722675 9.980375 l2.7539 0 q0 2.021484375 0.703125 3.4375 q0.76171875 1.8359375 1.03515625 2.919921875 l0 0.019531 l0.029297 0 q0.3515625 -1.2890625 1.455078125 -3.994140625 q0.283203125 -1.2890625 0.283203125 -2.3828125 l2.5879 0 q-0.234375 2.109375 -0.5859375 3.10546875 l-1.5527 3.5352 l-0.94727 0 l0 2.4219 l-1.4355 0 l0 0.46875 l1.4355 0 l0 4.4727 l-2.6758 0 q-0.048828125 0 -0.048828125 -0.048828125 l0 -2.1875 l-0.41992 0 l0 -3.877 l0.79102 0 l0 -0.36133 l-0.86914 0 q-0.107421875 -0.126953125 -1.62109375 -3.642578125 q-0.634765625 -1.40625 -0.634765625 -1.69921875 l1.1523 0 l0 -0.48828 l-1.25 0 q-0.185546875 -1.552734375 -0.185546875 -1.69921875 z M12.4023475 11.679375 l1.8555 0 l0.078125 0.48828 l-1.9336 0 l0 -0.48828 z M19.9511875 16.708975 l0.42969 0 l0 0.097656 l-0.26367 0.33203 l0.26367 0 l0 0.068359 q0 0.048828125 -0.048828125 0.048828125 l-0.35156 0 q-0.048828125 0 -0.048828125 -0.048828125 l0 -0.048828 l0.26367 -0.32227 l-0.24414 0 l0 -0.12695 z M19.8339875 19.042975 l1.1523 0 l0 0.46875 l-1.1523 0 l0 -0.46875 z  M29.062500625 10.000375 l4.248 0 q2.666015625 0 3.671875 1.806640625 q0.83984375 1.416015625 0.83984375 4.677734375 l0.41992 0 l0 3.3398 l-4.1309 0 l0 -0.37109 l1.2891 0 l0 -2.9688 l-0.37109 0 l0 -1.2207 q0 -2.060546875 -0.91796875 -2.626953125 q-0.546875 -0.3125 -1.73828125 -0.3125 l-0.56641 0 l0 4.0918 l0.38086 0 l0 3.4082 l-2.8027 0 l0 -3.1445 l-0.32227 0 l0 -6.6797 z M35.097640625 18.789075 l0.13672 0 l0 0.35156 l0.078125 0 l0 0.11719 l-0.078125 0 l0 0.14648 l-0.13672 0 l0 -0.14648 l-0.25391 0 l0 -0.087891 q0.25390625 -0.3515625 0.25390625 -0.380859375 z M34.980440625 19.140575 l0.11719 0 l0 -0.13672 q-0.029296875 0 -0.1171875 0.13671875 z M32.324240625 19.121075 l0.13672 0 q0.029296875 0 0.146484375 0.166015625 q0.09765625 -0.1171875 0.09765625 -0.166015625 l0.15625 0 l0 0.019531 q-0.15625 0.224609375 -0.15625 0.283203125 l0.18555 0.30273 l-0.18555 0 q0 -0.078125 -0.1171875 -0.185546875 q-0.087890625 0.17578125 -0.146484375 0.185546875 l-0.13672 0 q0.15625 -0.283203125 0.205078125 -0.302734375 z M27.812500625 19.824175 l1.2695 0 l0 0.44922 l3.1055 0 l0 0.91797 l1.9238 0 l0 -0.91797 l4.1309 0 l0 0.91797 l-2.8418 0 l0 2.4902 l-3.2129 0 l0 0.30273 l-3.0859 0 q-0.0390625 0 -0.0390625 -0.048828125 l0 -3.6621 l-1.25 0 l0 -0.44922 z M32.187540625 19.824175 l1.9238 0 l0 0.44922 l-1.9238 0 l0 -0.44922 z M38.242140625 19.824175 l2.7539 0 l0 0.44922 l-2.7539 0 l0 -0.44922 z M35.732440625 21.279275 l0.16602 0 q0.166015625 0.458984375 0.205078125 0.634765625 l-0.11719 0 q-0.0390625 0 -0.068359375 -0.13671875 l-0.18555 0 q-0.048828125 0 -0.068359375 0.13671875 l-0.14648 0 l0 -0.019531 q0 -0.01953125 0.21484375 -0.615234375 z M36.269540625 21.279275 l0.14648 0 l0.11719 0.40039 l0.019531 0 q0 -0.0390625 0.1171875 -0.400390625 l0.14648 0 q0 0.078125 -0.1953125 0.634765625 l-0.13672 0 q-0.05859375 0 -0.21484375 -0.634765625 z M37.050740625 21.279275 l0.16602 0 l0 0.63477 l-0.16602 0 l0 -0.63477 z M37.490240625 21.279275 l0.26367 0 q0.302734375 0 0.302734375 0.3515625 q0 0.244140625 -0.302734375 0.283203125 l-0.26367 0 l0 -0.63477 z M37.656240625 21.425775 l0 0.35156 l0.14648 0 q0.029296875 0 0.087890625 -0.09765625 l0 -0.16602 q0 -0.029296875 -0.087890625 -0.087890625 l-0.14648 0 z M35.800740625 21.474575 q0 0.029296875 -0.048828125 0.185546875 l0.11719 0 q-0.0390625 -0.15625 -0.0390625 -0.185546875 l-0.029297 0 z M39.5898425 9.990375 l2.6367 0 q0.0390625 0.009765625 0.0390625 0.048828125 l0 6.7969 q0 0.048828125 -0.0390625 0.048828125 l-0.3125 0 l0 7.0508 q0 0.048828125 -0.048828125 0.048828125 l-2.2754 0 q-0.048828125 0 -0.048828125 -0.048828125 l0 -7.2168 l-0.70313 0 q-0.048828125 0 -0.048828125 -0.048828125 l0 -0.30273 q0.009765625 -0.048828125 0.048828125 -0.048828125 l0.70313 0 l0 -6.2793 q0.009765625 -0.048828125 0.048828125 -0.048828125 z M39.5605425 16.318375 l0 0.40039 l1.3477 0 l0 -0.40039 l-1.3477 0 z M47.9004125 9.980375 l0.019531 0 q3.134765625 0 3.837890625 2.041015625 q0.322265625 0.76171875 0.322265625 2.138671875 l-2.2754 0.30273 l-0.029297 -0.048828 l0 -0.048828 q0 -1.650390625 -1.11328125 -1.97265625 q-0.341796875 -0.087890625 -0.830078125 -0.1171875 q-1.2109375 0 -1.5625 1.298828125 q-0.205078125 0.869140625 -0.205078125 2.05078125 l0 1.0938 q0 1.9140625 0.048828125 2.87109375 l0.57617 0 l0 1.9531 l2.7832 0 l0 -3.3398 l-1.7578 0 l0 -1.7871 l5.293 0 l0 0.39063 l-0.69336 0 l0 2.0703 l-1.416 0 l0 0.64453 l0.69336 0 l0 3.9746 l-7.5684 0 l0 -2.1094 l-0.85938 0 l0 -0.18555 l0.37109 0 l0 -0.21484 l0.48828 0 l0 -0.79102 l-1.3281 0 l0 -1.6895 l0.625 0 q-0.01953125 -0.7421875 -0.01953125 -0.859375 q0 -4.443359375 0.48828125 -5.37109375 q0.13671875 -0.576171875 0.810546875 -1.279296875 q0.986328125 -1.015625 3.30078125 -1.015625 z M46.3183125 18.779275 l0.13672 0 l0 0.625 l-0.13672 0 l0 -0.625 z M52.0117125 19.619175 q0.146484375 0.048828125 0.15625 0.1171875 l0 0.087891 q0 0.0390625 -0.087890625 0.09765625 q0.01953125 0.0390625 0.01953125 0.068359375 l0.048828 0 l0 -0.048828 l0.11719 0 l0 0.029297 q0 0.107421875 -0.048828125 0.107421875 q0 0.029296875 0.1171875 0.166015625 l-0.13672 0 l-0.068359 -0.048828 q-0.09765625 0.068359375 -0.185546875 0.068359375 q-0.15625 0 -0.185546875 -0.205078125 q0.029296875 -0.09765625 0.107421875 -0.13671875 q-0.01953125 -0.126953125 -0.01953125 -0.185546875 q0 -0.068359375 0.166015625 -0.1171875 z M51.9629125 19.785175 q0.01953125 0.0390625 0.01953125 0.068359375 q0.0390625 0 0.068359375 -0.068359375 q0 -0.048828125 -0.0390625 -0.048828125 q-0.048828125 0 -0.048828125 0.048828125 z M51.9433125 19.990275 l-0.048828 0.068359 l0 0.019531 q0 0.0390625 0.068359375 0.078125 q0.087890625 -0.0390625 0.087890625 -0.078125 z M52.0117125 20.615275 q0.146484375 0.048828125 0.15625 0.1171875 l0 0.097656 q0 0.029296875 -0.087890625 0.087890625 q0.01953125 0.048828125 0.01953125 0.068359375 l0.048828 0 l0 -0.048828 l0.11719 0 l0 0.029297 q0 0.1171875 -0.048828125 0.1171875 q0 0.01953125 0.1171875 0.15625 l-0.13672 0 l-0.068359 -0.039063 q-0.09765625 0.068359375 -0.185546875 0.068359375 q-0.15625 0 -0.185546875 -0.21484375 q0.029296875 -0.087890625 0.107421875 -0.13671875 q-0.01953125 -0.126953125 -0.01953125 -0.185546875 q0 -0.068359375 0.166015625 -0.1171875 z M51.9629125 20.781275 q0.01953125 0.0390625 0.01953125 0.068359375 q0.0390625 0 0.068359375 -0.068359375 q0 -0.048828125 -0.0390625 -0.048828125 q-0.048828125 0.009765625 -0.048828125 0.048828125 z M47.1289125 20.781275 q0.302734375 0.048828125 0.302734375 0.2734375 l0 0.068359 q-0.01953125 0.302734375 -0.302734375 0.302734375 l-0.019531 0 q-0.283203125 0 -0.283203125 -0.341796875 q0.078125 -0.302734375 0.302734375 -0.302734375 z M47.6660125 20.800775 l0.50781 0 l0 0.13672 l-0.15625 0 l0 0.44922 q0 0.0390625 -0.048828125 0.0390625 l-0.068359 0 q-0.048828125 0 -0.048828125 -0.0390625 l0 -0.44922 l-0.13672 0 q-0.048828125 0 -0.048828125 -0.0390625 l0 -0.097656 z M46.9922125 21.083975 l0 0.11719 q0 0.029296875 0.09765625 0.087890625 l0.10742 0 q0.078125 0 0.09765625 -0.185546875 q0 -0.1171875 -0.1171875 -0.185546875 l-0.019531 0 q-0.166015625 0 -0.166015625 0.166015625 z M51.9433125 20.986375 l-0.048828 0.068359 l0 0.029297 q0 0.029296875 0.068359375 0.068359375 q0.087890625 -0.0390625 0.087890625 -0.068359375 q-0.09765625 -0.09765625 -0.107421875 -0.09765625 z M51.9824125 21.611375 q0.1171875 0 0.185546875 0.1171875 l0 0.097656 q0 0.0390625 -0.087890625 0.087890625 q0.01953125 0.048828125 0.01953125 0.068359375 l0.048828 0 l0 -0.039063 l0.11719 0 l0 0.019531 q0 0.1171875 -0.048828125 0.1171875 q0 0.01953125 0.1171875 0.166015625 l-0.13672 0 l-0.068359 -0.048828 q-0.09765625 0.068359375 -0.185546875 0.068359375 q-0.15625 0 -0.185546875 -0.205078125 q0.029296875 -0.09765625 0.107421875 -0.146484375 l-0.019531 -0.15625 l0 -0.029297 q0 -0.0390625 0.13671875 -0.1171875 z M51.9629125 21.777375 q0.01953125 0.048828125 0.01953125 0.068359375 q0.0390625 0 0.068359375 -0.068359375 q0 -0.048828125 -0.0390625 -0.048828125 q-0.048828125 0.009765625 -0.048828125 0.048828125 z M51.9433125 21.982375 l-0.048828 0.078125 l0 0.019531 q0 0.029296875 0.068359375 0.068359375 q0.087890625 -0.029296875 0.087890625 -0.068359375 z M51.9824125 22.617175 q0.1171875 0 0.185546875 0.1171875 l0 0.087891 q0 0.0390625 -0.087890625 0.09765625 q0.01953125 0.0390625 0.01953125 0.068359375 l0.048828 0 l0 -0.048828 l0.11719 0 l0 0.019531 l-0.048828 0.16602 q0.029296875 0 0.1171875 0.1171875 l-0.13672 0 l-0.068359 -0.048828 q-0.09765625 0.068359375 -0.185546875 0.068359375 q-0.15625 0 -0.185546875 -0.205078125 q0.029296875 -0.09765625 0.107421875 -0.13671875 l-0.019531 -0.16602 l0 -0.019531 q0 -0.048828125 0.13671875 -0.1171875 z M51.9629125 22.773475 q0.01953125 0.048828125 0.01953125 0.068359375 q0.0390625 0 0.068359375 -0.068359375 q0 -0.0390625 -0.0390625 -0.0390625 q-0.048828125 0 -0.048828125 0.0390625 z M51.9433125 22.988285 l-0.048828 0.068359 l0 0.019531 q0 0.0390625 0.068359375 0.068359375 q0.087890625 -0.029296875 0.087890625 -0.068359375 z M45.9668125 23.701175 l2.8809 0 l0 0.2832 l-2.8809 0 l0 -0.2832 z M53.837889375 9.990375 l2.6367 0 q0.0390625 0.009765625 0.0390625 0.048828125 l0 6.7969 q0 0.048828125 -0.0390625 0.048828125 l-0.3125 0 l0 7.0508 q0 0.048828125 -0.048828125 0.048828125 l-2.2754 0 q-0.048828125 0 -0.048828125 -0.048828125 l0 -7.2168 l-0.70313 0 q-0.048828125 0 -0.048828125 -0.048828125 l0 -0.30273 q0.009765625 -0.048828125 0.048828125 -0.048828125 l0.70313 0 l0 -6.2793 q0.009765625 -0.048828125 0.048828125 -0.048828125 z M53.808589375 16.318375 l0 0.40039 l1.3477 0 l0 -0.40039 l-1.3477 0 z M56.533199375 9.990375 l8.2031 0 l0 2.334 l-2.7148 0 l0 9.6777 l1.2305 0 l0 0.2832 l-1.2305 0 l0 1.0645 l-0.73242 0 l0 0.37109 l0.51758 0 l0 0.26367 l-2.4902 0 q-0.048828125 0 -0.048828125 -0.048828125 l0 -11.611 l-2.7344 0 l0 -2.334 z M61.054659375 22.001975 l0 0.2832 l0.94727 0 l0 -0.2832 l-0.94727 0 z M68.544959375 10.000375 l2.3535 0 q0.048828125 0.205078125 2.294921875 7.63671875 l0.41992 0 l0 4.5996 l-0.9668 0 l0 0.36133 l0.9668 0 l0 0.98633 l-2.5977 0 l0 -2.832 l-3.1836 0 l0 1.2012 l-1.2891 0 l0 2.0313 l-2.3633 0 l0 -0.13672 l0.18555 0 l0 -1.8945 l0.9668 0 l0 -3.916 l0.80078 0 z M69.648459375 13.935375 l0 0.029297 q-0.302734375 1.66015625 -1.171875 5.25390625 l2.1875 0 l0 -1.582 l-0.18555 0 q-0.78125 -3.3984375 -0.78125 -3.701171875 l-0.048828 0 z M65.478559375 17.333975 l0.21484 0 q0 0.087890625 0.087890625 0.146484375 q0.009765625 -0.087890625 0.09765625 -0.146484375 l0.16602 0 l0 0.019531 q-0.166015625 0.234375 -0.166015625 0.263671875 q0.0390625 0.087890625 0.185546875 0.283203125 l0 0.048828 l-0.087891 0 q-0.13671875 0 -0.1953125 -0.1953125 q-0.146484375 0.1953125 -0.166015625 0.1953125 l-0.11719 0 q-0.048828125 0 -0.048828125 -0.048828125 q0.029296875 0 0.1953125 -0.263671875 l0 -0.039063 q-0.166015625 -0.244140625 -0.166015625 -0.263671875 z M63.496089375 17.617175 l1.8359 0 l0 0.41992 l-1.8359 0 l0 -0.41992 z M73.681659375 17.919875 l0.49805 0 l0 0.11719 l-0.30273 0.38086 l0.2832 0 q0.0390625 0.009765625 0.0390625 0.048828125 l0 0.048828 q0 0.048828125 -0.0390625 0.048828125 l-0.49805 0 l0 -0.11719 l0.30273 -0.38086 l-0.2832 0 l0 -0.14648 z M70.078159375 18.535175 l0.13672 0 l0 0.23438 l0.26367 -0.23438 l0.13672 0 l0 0.029297 l-0.20508 0.23438 q0.234375 0.33203125 0.234375 0.37109375 l-0.14648 0 q-0.01953125 0 -0.21484375 -0.25390625 q-0.029296875 0 -0.068359375 0.068359375 l0 0.18555 l-0.13672 0 l0 -0.63477 z M73.730459375 18.749975 l0.2832 0 q0.21484375 0.029296875 0.21484375 0.21484375 l-0.068359 0.11719 q0.068359375 0.078125 0.068359375 0.283203125 l0 0.019531 l-0.14648 0 q-0.01953125 -0.234375 -0.068359375 -0.234375 l-0.16602 0 l0 0.23438 l-0.11719 0 q-0.048828125 0 -0.048828125 -0.048828125 l0 -0.53711 q0.009765625 -0.048828125 0.048828125 -0.048828125 z M73.847659375 18.886675 l0 0.14648 l0.16602 0 q0.048828125 0 0.048828125 -0.048828125 l0 -0.097656 l-0.21484 0 z M73.681659375 19.570275 l0.44922 0 q0.048828125 0.009765625 0.048828125 0.048828125 l0 0.048828 q0 0.048828125 -0.048828125 0.048828125 l-0.13672 0 l0 0.49805 l-0.16602 0 l0 -0.49805 l-0.14648 0 q-0.048828125 0 -0.048828125 -0.048828125 l0 -0.048828 q0.009765625 -0.048828125 0.048828125 -0.048828125 z M73.632859375 20.400375 l0.11719 0 q0.068359375 0 0.146484375 0.400390625 l0.019531 0 q0.1171875 -0.3515625 0.1171875 -0.400390625 l0.16602 0 q-0.185546875 0.634765625 -0.234375 0.634765625 l-0.13672 0 z M68.544959375 20.937475 l0 0.12695 q0 0.0390625 -0.380859375 0.15625 l0 0.029297 l0.38086 0.13672 l0 0.14648 l-0.5957 -0.21484 l0 -0.16602 z M64.882809375 21.220675 l0.078125 0 q0.078125 0 0.25390625 0.64453125 l-0.13672 0 q0 -0.01953125 -0.048828125 -0.146484375 l-0.21484 0 q-0.01953125 0.146484375 -0.068359375 0.146484375 l-0.11719 0 q0.205078125 -0.64453125 0.25390625 -0.64453125 z M73.945359375 21.220675 l0.068359 0 q0.234375 0 0.283203125 0.33203125 q-0.068359375 0.33203125 -0.302734375 0.33203125 q-0.33203125 -0.05859375 -0.33203125 -0.33203125 q0.048828125 -0.33203125 0.283203125 -0.33203125 z M73.828159375 21.533175 l0 0.019531 q0 0.126953125 0.1171875 0.1953125 l0.068359 0 q0.1171875 -0.068359375 0.1171875 -0.1953125 l0 -0.019531 q-0.01953125 -0.185546875 -0.166015625 -0.185546875 q-0.13671875 0.048828125 -0.13671875 0.185546875 z M64.912109375 21.435575 q-0.048828125 0.15625 -0.048828125 0.166015625 l0.11719 0 l-0.048828 -0.16602 l-0.019531 0 z M71.015659375 23.749995 l3.1445 0 l0 0.23438 l-3.1445 0 l0 -0.23438 z M74.443358125 9.990375 l2.7734 0 l0 5.7422 l-0.53711 0 l0 5.9277 l4.1309 0 l0 1.2402 l-0.82031 0 l0 0.2832 l0.82031 0 l0 0.80078 l-2.6758 0 l0 -0.21484 l-3.6719 0 q-0.01953125 -0.234375 -0.01953125 -0.3515625 l0 -3.125 l0.70313 0 l0 -0.41992 l-0.70313 0 l0 -9.8828 z M76.865278125 20.927775 l0.16602 0 q0.1171875 0.166015625 0.13671875 0.166015625 q0.078125 -0.166015625 0.1171875 -0.166015625 l0.14648 0 q-0.029296875 0.078125 -0.185546875 0.283203125 q0.048828125 0.09765625 0.205078125 0.33203125 l-0.16602 0 q-0.1171875 -0.107421875 -0.1171875 -0.1953125 q-0.01953125 0 -0.166015625 0.1953125 l-0.13672 0 l0 -0.029297 l0.18555 -0.2832 l0 -0.019531 z M80.810578125 22.900375 l1.0156 0 l0 0.2832 l-1.0156 0 l0 -0.2832 z  M91.4844125 10.029375 q2.32421875 0 3.115234375 1.494140625 q0.546875 1.1328125 0.546875 2.216796875 l-0.019531 0 q-1.591796875 0.13671875 -2.177734375 0.13671875 q0 -0.771484375 -0.478515625 -1.298828125 q-0.44921875 -0.25390625 -0.830078125 -0.25390625 l-0.39063 0 q-0.99609375 0 -1.2109375 0.771484375 q-0.048828125 0.224609375 -0.048828125 0.3515625 l0 0.20508 q0 1.09375 1.15234375 1.58203125 q0.09765625 0.087890625 1.6015625 0.732421875 q0.80078125 0.37109375 1.484375 0.91796875 l0 0.019531 l-2.4512 0 l0 0.27344 l3.2324 0 l0 0.39063 l0.41016 0 l0 4.2383 l-0.80078 0 l0 2.1777 l-6.2109 0 l0 -2.1777 l-1.4648 0 l0 -1.4648 l0.83008 0 l0 -0.50781 l-0.83008 0 l0 -0.3418 l2.8418 0 l0 2.3145 l2.9102 0 l0 -3.4863 l-2.1777 0 l0 -1.1426 l-2.7051 0 l0 -0.27344 l1.3086 0 l0 -0.019531 q-1.71875 -1.142578125 -1.71875 -3.232421875 l0 -0.18555 q0 -1.748046875 1.07421875 -2.65625 q0.9765625 -0.78125 3.0078125 -0.78125 z M95.0098125 16.904275 l0.98633 0 l0 0.27344 l-0.98633 0 l0 -0.27344 z M86.0058625 19.833975 l0.9375 0 l0 0.50781 l-0.9375 0 l0 -0.50781 z M92.2656125 19.833975 l0.29297 0 q0.048828125 0.009765625 0.048828125 0.048828125 l0 0.068359 l-0.25391 0 l0 0.087891 l0.22461 0 l0 0.068359 q0 0.048828125 -0.0390625 0.048828125 l-0.18555 0 l0 0.097656 l0.25391 0 l0 0.068359 q0 0.0390625 -0.048828125 0.0390625 l-0.29297 0 q-0.048828125 0 -0.048828125 -0.0390625 l0 -0.43945 q0.009765625 -0.048828125 0.048828125 -0.048828125 z M92.1484125 20.527375 l0.087891 0 q0.01953125 0 0.166015625 0.17578125 q0.068359375 -0.17578125 0.107421875 -0.17578125 l0.068359 0 q0.048828125 0 0.048828125 0.0390625 q-0.205078125 0.234375 -0.205078125 0.48828125 l-0.068359 0 q-0.048828125 0 -0.068359375 -0.2734375 q-0.13671875 -0.185546875 -0.13671875 -0.25390625 z M92.0801125 21.210975 l0.087891 0 q0.05859375 0 0.1171875 0.302734375 l0.048828 0 q0.05859375 -0.302734375 0.107421875 -0.302734375 l0.097656 0 q0.0390625 0.009765625 0.0390625 0.048828125 l0 0.42969 q0 0.048828125 -0.0390625 0.048828125 l-0.068359 0 l0 -0.29297 l-0.029297 0 l-0.087891 0.29297 l-0.068359 0 q-0.048828125 0 -0.1171875 -0.29296875 l-0.019531 0 l0 0.29297 l-0.068359 0 q-0.048828125 0 -0.048828125 -0.048828125 l0 -0.42969 q0.009765625 -0.048828125 0.048828125 -0.048828125 z M94.7558125 21.923875 l0.23438 0 q0.185546875 0 0.185546875 0.185546875 q-0.048828125 0 -0.048828125 0.0390625 q0.068359375 0.087890625 0.068359375 0.166015625 q-0.05859375 0.13671875 -0.25390625 0.13671875 l-0.13672 0 q-0.048828125 0 -0.048828125 -0.048828125 l0 -0.47852 z M94.8926125 22.040975 l0 0.087891 l0.097656 0 q0.0390625 0 0.0390625 -0.048828125 l0 -0.039063 l-0.13672 0 z M94.8926125 22.216775 l0 0.11719 l0.11719 0 q0.048828125 0 0.048828125 -0.048828125 l0 -0.019531 q0 -0.048828125 -0.048828125 -0.048828125 l-0.11719 0 z M94.7558125 22.607375 l0.097656 0 q0.048828125 0 0.205078125 0.322265625 l0.019531 0 l0 -0.32227 l0.11719 0 l0 0.47852 q0 0.048828125 -0.048828125 0.048828125 l-0.048828 0 q-0.01953125 0 -0.224609375 -0.29296875 l0 0.24414 q0 0.048828125 -0.048828125 0.048828125 l-0.019531 0 q-0.048828125 0 -0.048828125 -0.048828125 l0 -0.47852 z M100.556678125 10.000375 l2.3535 0 q0.048828125 0.205078125 2.294921875 7.63671875 l0.41992 0 l0 4.5996 l-0.9668 0 l0 0.36133 l0.9668 0 l0 0.98633 l-2.5977 0 l0 -2.832 l-3.1836 0 l0 1.2012 l-1.2891 0 l0 2.0313 l-2.3633 0 l0 -0.13672 l0.18555 0 l0 -1.8945 l0.9668 0 l0 -3.916 l0.80078 0 z M101.660178125 13.935375 l0 0.029297 q-0.302734375 1.66015625 -1.171875 5.25390625 l2.1875 0 l0 -1.582 l-0.18555 0 q-0.78125 -3.3984375 -0.78125 -3.701171875 l-0.048828 0 z M97.490278125 17.333975 l0.21484 0 q0 0.087890625 0.087890625 0.146484375 q0.009765625 -0.087890625 0.09765625 -0.146484375 l0.16602 0 l0 0.019531 q-0.166015625 0.234375 -0.166015625 0.263671875 q0.0390625 0.087890625 0.185546875 0.283203125 l0 0.048828 l-0.087891 0 q-0.13671875 0 -0.1953125 -0.1953125 q-0.146484375 0.1953125 -0.166015625 0.1953125 l-0.11719 0 q-0.048828125 0 -0.048828125 -0.048828125 q0.029296875 0 0.1953125 -0.263671875 l0 -0.039063 q-0.166015625 -0.244140625 -0.166015625 -0.263671875 z M95.507808125 17.617175 l1.8359 0 l0 0.41992 l-1.8359 0 l0 -0.41992 z M105.693378125 17.919875 l0.49805 0 l0 0.11719 l-0.30273 0.38086 l0.2832 0 q0.0390625 0.009765625 0.0390625 0.048828125 l0 0.048828 q0 0.048828125 -0.0390625 0.048828125 l-0.49805 0 l0 -0.11719 l0.30273 -0.38086 l-0.2832 0 l0 -0.14648 z M102.089878125 18.535175 l0.13672 0 l0 0.23438 l0.26367 -0.23438 l0.13672 0 l0 0.029297 l-0.20508 0.23438 q0.234375 0.33203125 0.234375 0.37109375 l-0.14648 0 q-0.01953125 0 -0.21484375 -0.25390625 q-0.029296875 0 -0.068359375 0.068359375 l0 0.18555 l-0.13672 0 l0 -0.63477 z M105.742178125 18.749975 l0.2832 0 q0.21484375 0.029296875 0.21484375 0.21484375 l-0.068359 0.11719 q0.068359375 0.078125 0.068359375 0.283203125 l0 0.019531 l-0.14648 0 q-0.01953125 -0.234375 -0.068359375 -0.234375 l-0.16602 0 l0 0.23438 l-0.11719 0 q-0.048828125 0 -0.048828125 -0.048828125 l0 -0.53711 q0.009765625 -0.048828125 0.048828125 -0.048828125 z M105.859378125 18.886675 l0 0.14648 l0.16602 0 q0.048828125 0 0.048828125 -0.048828125 l0 -0.097656 l-0.21484 0 z M105.693378125 19.570275 l0.44922 0 q0.048828125 0.009765625 0.048828125 0.048828125 l0 0.048828 q0 0.048828125 -0.048828125 0.048828125 l-0.13672 0 l0 0.49805 l-0.16602 0 l0 -0.49805 l-0.14648 0 q-0.048828125 0 -0.048828125 -0.048828125 l0 -0.048828 q0.009765625 -0.048828125 0.048828125 -0.048828125 z M105.644578125 20.400375 l0.11719 0 q0.068359375 0 0.146484375 0.400390625 l0.019531 0 q0.1171875 -0.3515625 0.1171875 -0.400390625 l0.16602 0 q-0.185546875 0.634765625 -0.234375 0.634765625 l-0.13672 0 z M100.556678125 20.937475 l0 0.12695 q0 0.0390625 -0.380859375 0.15625 l0 0.029297 l0.38086 0.13672 l0 0.14648 l-0.5957 -0.21484 l0 -0.16602 z M96.894528125 21.220675 l0.078125 0 q0.078125 0 0.25390625 0.64453125 l-0.13672 0 q0 -0.01953125 -0.048828125 -0.146484375 l-0.21484 0 q-0.01953125 0.146484375 -0.068359375 0.146484375 l-0.11719 0 q0.205078125 -0.64453125 0.25390625 -0.64453125 z M105.957078125 21.220675 l0.068359 0 q0.234375 0 0.283203125 0.33203125 q-0.068359375 0.33203125 -0.302734375 0.33203125 q-0.33203125 -0.05859375 -0.33203125 -0.33203125 q0.048828125 -0.33203125 0.283203125 -0.33203125 z M105.839878125 21.533175 l0 0.019531 q0 0.126953125 0.1171875 0.1953125 l0.068359 0 q0.1171875 -0.068359375 0.1171875 -0.1953125 l0 -0.019531 q-0.01953125 -0.185546875 -0.166015625 -0.185546875 q-0.13671875 0.048828125 -0.13671875 0.185546875 z M96.923828125 21.435575 q-0.048828125 0.15625 -0.048828125 0.166015625 l0.11719 0 l-0.048828 -0.16602 l-0.019531 0 z M103.027378125 23.749995 l3.1445 0 l0 0.23438 l-3.1445 0 l0 -0.23438 z M106.992186875 10.000375 l7.0215 0 l0 2.3242 l-4.2383 0 l0 3.3203 l3.6523 0 l0.048828 0.029297 l-0.029297 0.048828 q-0.01953125 0.703125 -0.01953125 0.8203125 l-0.40039 0 l0 0.019531 q0 0.25390625 -0.048828125 1.083984375 l0.37109 0 q0 0.400390625 -0.068359375 0.400390625 l-2.5684 0 l0 0.47852 l-1.3379 0 l0 0.25391 l0.40039 0 l0 1.2207 l1.3379 0 l0 0.21484 l-1.3379 0 l0 3.3887 l-0.019531 0.16602 l-1.4453 0 l0 0.21484 l-1.2695 0 q-0.048828125 0 -0.048828125 -0.048828125 l0 -0.35156 l0.029297 -0.23438 l0.68359 0 l0 -0.35156 l-0.71289 0 l0 -1.3477 l0.33203 0 l0 -4.9414 l0.56641 0 l0 -0.35156 l-0.89844 0 l0 -6.3574 z M106.757816875 19.277375 l0.097656 0 q0.048828125 0 0.048828125 0.048828125 l0 0.32227 q0.009765625 0.146484375 0.068359375 0.146484375 l0.097656 0 q0.029296875 0 0.068359375 -0.068359375 l0 -0.40039 q0.009765625 -0.048828125 0.048828125 -0.048828125 l0.087891 0 l0 0.44922 q0 0.205078125 -0.283203125 0.205078125 q-0.234375 -0.029296875 -0.234375 -0.205078125 l0 -0.44922 z M109.824196875 19.511675 l0.019531 0 q0.37109375 0.166015625 0.4296875 0.166015625 l0 0.13672 l-0.42969 0.14648 l-0.019531 0 l0 -0.078125 q0 -0.029296875 0.283203125 -0.13671875 l0 -0.019531 q-0.048828125 0 -0.283203125 -0.09765625 l0 -0.11719 z M108.476596875 19.999975 l0 0.21484 l1.2793 0 l0 -0.21484 l-1.2793 0 z M106.953126875 20.097675 l0.019531 0 q0.25390625 0 0.25390625 0.21484375 l-0.15625 0 q0 -0.09765625 -0.1171875 -0.09765625 q-0.0390625 0 -0.078125 0.068359375 q0.3515625 0.13671875 0.3515625 0.1953125 q0 0.01953125 0.029296875 0.068359375 q0 0.17578125 -0.283203125 0.21484375 q-0.263671875 -0.0390625 -0.263671875 -0.244140625 l0.16602 0 q0 0.09765625 0.048828125 0.09765625 l0.11719 0 q0.048828125 0 0.048828125 -0.048828125 l0 -0.048828 q-0.3515625 -0.087890625 -0.3515625 -0.185546875 l0 -0.087891 q0.078125 -0.146484375 0.21484375 -0.146484375 z M106.708986875 20.917975 l0.078125 0 q0.13671875 0 0.185546875 0.1953125 l0.16602 -0.19531 l0.11719 0 l0 0.048828 q-0.166015625 0.224609375 -0.166015625 0.3125 q0.029296875 0 0.185546875 0.25390625 l0 0.029297 l-0.13672 0 q-0.01953125 0 -0.166015625 -0.1953125 q-0.087890625 0.17578125 -0.146484375 0.1953125 l-0.13672 0 q0.166015625 -0.29296875 0.21484375 -0.3125 q-0.1953125 -0.283203125 -0.1953125 -0.33203125 z M115.9082 10.000375 l6.8945 0 l0 2.2852 q0 0.048828125 -0.048828125 0.048828125 l-4.0918 0 l0 3.0371 l3.6719 0 l0 0.019531 q0 0.13671875 -0.048828125 1.484375 q-0.01953125 0 -0.01953125 0.029296875 l0.16602 0 l0 0.70313 l-3.1836 0 l0 2.8711 l-0.84961 0 l0 0.2832 l0.84961 0 l0 0.86914 l3.6035 0 l0 0.33203 l-0.2832 0 l0 1.7188 l-4.3066 0 l0 0.30273 l-2.0508 0 l0 -5.0098 l-0.30273 0 l0 -1.7676 l-2.2363 0 l0 -0.30273 l2.2363 0 l0 -6.9043 z M115.9277 16.904275 l0 0.30273 l1.1523 0 l0 -0.30273 l-1.1523 0 z M119.4629 20.927775 l0.16602 0 l0 0.23438 l0.019531 0 q0 -0.068359375 0.21484375 -0.234375 l0.16602 0 l-0.23438 0.25391 l0.25391 0.38086 l-0.16602 0 q-0.185546875 -0.263671875 -0.205078125 -0.263671875 q-0.048828125 0.009765625 -0.048828125 0.048828125 l0 0.21484 l-0.16602 0 l0 -0.63477 z M120.2832 20.927775 l0.33203 0 q0.15625 0 0.21484375 0.185546875 q0 0.029296875 -0.09765625 0.166015625 q0.068359375 0 0.09765625 0.283203125 l-0.11719 0 q-0.048828125 0 -0.078125 -0.234375 l-0.18555 0 l0 0.23438 l-0.16602 0 l0 -0.63477 z M121.3477 20.927775 l0.087891 0 q0.21484375 0 0.263671875 0.283203125 l0 0.087891 q0 0.078125 -0.068359375 0.166015625 l0 0.029297 q0.068359375 0 0.068359375 0.0390625 t-0.068359 0.078125 q-0.0390625 0 -0.078125 -0.078125 l-0.11719 0.029297 l-0.087891 0 q-0.234375 0 -0.263671875 -0.3515625 q0.068359375 -0.283203125 0.263671875 -0.283203125 z M121.25 21.210975 l0 0.068359 q0 0.166015625 0.166015625 0.166015625 l0.019531 0 l0 -0.029297 l-0.039063 0 l0 -0.019531 q0 -0.0390625 0.068359375 -0.068359375 l0.068359 0.039063 q0 -0.009765625 0.01953125 -0.13671875 q-0.009765625 -0.185546875 -0.185546875 -0.185546875 q-0.1171875 0.029296875 -0.1171875 0.166015625 z M120.4492 21.064475 l0 0.14648 l0.16602 0 q0.048828125 0 0.048828125 -0.048828125 l0 -0.048828 q0 -0.048828125 -0.048828125 -0.048828125 l-0.16602 0 z M122.7148 22.099575 l0.13672 0 l0 0.029297 q0 0.419921875 -0.068359375 0.419921875 t-0.068359 -0.30273 l0 -0.14648 z M122.7148 22.568375 l0.13672 0 l0 0.14648 l-0.13672 0 l0 -0.14648 z"/></g><g id="SvgjsG1346" rel="mainfill" name="symbol" feature="symbol" xmlns:name="symbol_mainfill" fill="#222222" transform="translate(61.27053482131292, 8.196178287472392) scale(1.3607643425055216)"><g xmlns="http://www.w3.org/2000/svg"><g><g><g><path d="M20.255,24.134c0,0.646-0.523,1.167-1.168,1.167c-0.646,0-1.17-0.521-1.17-1.167c0-0.647,0.523-1.169,1.17-1.169      C19.732,22.965,20.255,23.487,20.255,24.134z"/><circle cx="19.086" cy="28.615" r="1.169"/></g><g><path d="M7.15,5v90h85.7V5H7.15z M85.463,87.205H14.537v-8.75h-4.98v-9.652h4.98V31.201h-4.98v-9.652h4.98v-8.75h70.926V87.205z      "/><g><path d="M20.255,71.389c0,0.646-0.523,1.166-1.168,1.166c-0.646,0-1.17-0.521-1.17-1.166c0-0.647,0.523-1.17,1.17-1.17       C19.732,70.219,20.255,70.74,20.255,71.389z"/><circle cx="19.086" cy="75.869" r="1.169"/></g></g></g><path d="M48.997,52.215c-2.814,0-5.104-2.289-5.104-5.102s2.29-5.101,5.104-5.101c2.813,0,5.101,2.288,5.101,5.101    S51.811,52.215,48.997,52.215z M48.997,43.263c-2.124,0-3.853,1.727-3.853,3.85c0,2.125,1.729,3.852,3.853,3.852    c2.123,0,3.851-1.727,3.851-3.852C52.848,44.99,51.12,43.263,48.997,43.263z"/><g><path d="M48.998,30.643c-9.083,0-16.473,7.388-16.473,16.47c0,9.083,7.39,16.471,16.473,16.471s16.47-7.389,16.47-16.471     C65.468,38.031,58.08,30.643,48.998,30.643z M58.805,36.849l0.411,0.412l-3.466,3.466l-0.411-0.411L58.805,36.849z      M54.146,33.875l0.537,0.223l-1.875,4.528l-0.537-0.223L54.146,33.875z M49.215,35.506l2.646,4.804     c2.652,1.118,4.514,3.743,4.514,6.803c0,4.077-3.303,7.381-7.377,7.381c-4.077,0-7.38-3.305-7.38-7.381     c0-3.263,2.121-6.028,5.06-7.002L49.215,35.506z M43.845,33.875l1.875,4.527l-0.538,0.223l-1.875-4.527L43.845,33.875z      M39.187,36.849l3.467,3.464l-0.412,0.412l-3.467-3.464L39.187,36.849z M36.021,41.381l4.529,1.874l-0.223,0.538l-4.529-1.873     L36.021,41.381z M34.832,46.779h4.903v0.582h-4.903V46.779z M36.021,52.76l-0.223-0.539l4.529-1.875l0.223,0.539L36.021,52.76z      M39.187,57.291l-0.412-0.41l3.465-3.465l0.412,0.41L39.187,57.291z M43.845,60.268l-0.538-0.223l1.876-4.527l0.538,0.224     L43.845,60.268z M49.288,61.234h-0.582v-4.9h0.582V61.234z M54.146,60.268l-1.875-4.526l0.539-0.224l1.875,4.527L54.146,60.268z      M58.807,57.291l-3.468-3.465l0.411-0.412l3.469,3.465L58.807,57.291z M61.971,52.76l-4.529-1.875l0.224-0.539l4.528,1.875     L61.971,52.76z M63.16,47.361h-4.902v-0.582h4.902V47.361z M62.193,41.918l-4.529,1.877l-0.223-0.539l4.529-1.877L62.193,41.918z     "/><path d="M16.155,14.417v7.131h3.109c1.764,0,3.193,1.43,3.193,3.193v3.266c0,1.764-1.429,3.193-3.193,3.193h-3.109v37.602h3.109     c1.764,0,3.193,1.431,3.193,3.193v3.266c0,1.765-1.429,3.193-3.193,3.193h-3.109v7.131h67.691V14.417H16.155z M48.998,64.566     c-9.625,0-17.456-7.83-17.456-17.455c0-9.623,7.83-17.452,17.456-17.452c9.624,0,17.453,7.829,17.453,17.452     C66.45,56.736,58.621,64.566,48.998,64.566z M73.955,74.787c0,0.814-0.66,1.473-1.473,1.473c-0.812,0-1.469-0.658-1.469-1.473     l-0.939-17.023c0-1.33,1.078-2.408,2.408-2.408c1.332,0,2.41,1.078,2.41,2.408L73.955,74.787z M75.637,61.373l0.195-3.559     c0-1.902-1.495-3.402-3.35-3.402c-1.853,0-3.351,1.5-3.351,3.354l0.197,3.607c-1.175-0.936-1.942-2.357-1.942-3.975     c0-2.813,2.282-5.097,5.096-5.097c2.814,0,5.098,2.283,5.098,5.097C77.58,59.018,76.811,60.443,75.637,61.373z"/></g></g></g></g>
			</g>
		</svg>
	